<?xml version="1.0" encoding="UTF-8" standalone="no"?>
<!-- Created with Inkscape (http://www.inkscape.org/) -->
<svg
   xmlns:dc="http://purl.org/dc/elements/1.1/"
   xmlns:cc="http://web.resource.org/cc/"
   xmlns:rdf="http://www.w3.org/1999/02/22-rdf-syntax-ns#"
   xmlns:svg="http://www.w3.org/2000/svg"
   xmlns="http://www.w3.org/2000/svg"
   xmlns:sodipodi="http://sodipodi.sourceforge.net/DTD/sodipodi-0.dtd"
   xmlns:inkscape="http://www.inkscape.org/namespaces/inkscape"
   width="726.70654"
   height="753.47345"
   id="svg2"
   sodipodi:version="0.32"
   inkscape:version="0.44.1"
   sodipodi:docbase="/home/hakeem/HMMpix"
   sodipodi:docname="HMMsequence.svg"
   version="1.0">
  <defs
     id="defs4">
    <marker
       inkscape:stockid="Arrow1Sstart"
       orient="auto"
       refY="0"
       refX="0"
       id="Arrow1Sstart"
       style="overflow:visible">
      <path
         id="path3031"
         d="M 0,0 L 5,-5 L -12.5,0 L 5,5 L 0,0 z "
         style="fill-rule:evenodd;stroke:black;stroke-width:1pt;marker-start:none"
         transform="matrix(0.2,0,0,0.2,1.2,0)" />
    </marker>
    <marker
       inkscape:stockid="TriangleOutS"
       orient="auto"
       refY="0"
       refX="0"
       id="TriangleOutS"
       style="overflow:visible">
      <path
         id="path2939"
         d="M 5.77,0 L -2.88,5 L -2.88,-5 L 5.77,0 z "
         style="fill-rule:evenodd;stroke:black;stroke-width:1pt;marker-start:none"
         transform="scale(0.2,0.2)" />
    </marker>
    <marker
       inkscape:stockid="TriangleInS"
       orient="auto"
       refY="0"
       refX="0"
       id="TriangleInS"
       style="overflow:visible">
      <path
         id="path2948"
         d="M 5.77,0 L -2.88,5 L -2.88,-5 L 5.77,0 z "
         style="fill-rule:evenodd;stroke:black;stroke-width:1pt;marker-start:none"
         transform="scale(-0.2,-0.2)" />
    </marker>
    <marker
       inkscape:stockid="Arrow2Sstart"
       orient="auto"
       refY="0"
       refX="0"
       id="Arrow2Sstart"
       style="overflow:visible">
      <path
         id="path3013"
         style="font-size:12px;fill-rule:evenodd;stroke-width:0.625;stroke-linejoin:round"
         d="M 8.7185878,4.0337352 L -2.2072895,0.016013256 L 8.7185884,-4.0017078 C 6.97309,-1.6296469 6.9831476,1.6157441 8.7185878,4.0337352 z "
         transform="matrix(0.3,0,0,0.3,-0.69,0)" />
    </marker>
    <marker
       inkscape:stockid="Arrow1Mend"
       orient="auto"
       refY="0"
       refX="0"
       id="Arrow1Mend"
       style="overflow:visible">
      <path
         id="path3034"
         d="M 0,0 L 5,-5 L -12.5,0 L 5,5 L 0,0 z "
         style="fill-rule:evenodd;stroke:black;stroke-width:1pt;marker-start:none"
         transform="matrix(-0.4,0,0,-0.4,-4,0)" />
    </marker>
    <marker
       inkscape:stockid="Arrow1Mstart"
       orient="auto"
       refY="0"
       refX="0"
       id="Arrow1Mstart"
       style="overflow:visible">
      <path
         id="path3037"
         d="M 0,0 L 5,-5 L -12.5,0 L 5,5 L 0,0 z "
         style="fill-rule:evenodd;stroke:black;stroke-width:1pt;marker-start:none"
         transform="matrix(0.4,0,0,0.4,4,0)" />
    </marker>
    <marker
       inkscape:stockid="Arrow1Lstart"
       orient="auto"
       refY="0"
       refX="0"
       id="Arrow1Lstart"
       style="overflow:visible">
      <path
         id="path3043"
         d="M 0,0 L 5,-5 L -12.5,0 L 5,5 L 0,0 z "
         style="fill-rule:evenodd;stroke:black;stroke-width:1pt;marker-start:none"
         transform="matrix(0.8,0,0,0.8,10,0)" />
    </marker>
  </defs>
  <sodipodi:namedview
     id="base"
     pagecolor="#ffffff"
     bordercolor="#666666"
     borderopacity="1.0"
     gridtolerance="10000"
     guidetolerance="10"
     objecttolerance="10"
     inkscape:pageopacity="0.0"
     inkscape:pageshadow="2"
     inkscape:zoom="0.70983166"
     inkscape:cx="372.04724"
     inkscape:cy="300.07115"
     inkscape:document-units="px"
     inkscape:current-layer="layer1"
     inkscape:window-width="1270"
     inkscape:window-height="946"
     inkscape:window-x="0"
     inkscape:window-y="25"
     showgrid="false"
     showguides="false" />
  <metadata
     id="metadata7">
    <rdf:RDF>
      <cc:Work
         rdf:about="">
        <dc:format>image/svg+xml</dc:format>
        <dc:type
           rdf:resource="http://purl.org/dc/dcmitype/StillImage" />
      </cc:Work>
    </rdf:RDF>
  </metadata>
  <g
     inkscape:groupmode="layer"
     id="layer2"
     inkscape:label="background">
    <rect
       style="opacity:1;fill:white;fill-opacity:1;fill-rule:evenodd;stroke:black;stroke-width:0;stroke-linecap:square;stroke-linejoin:miter;stroke-miterlimit:4;stroke-dasharray:0,0;stroke-dashoffset:0;stroke-opacity:1"
       id="rect47588"
       width="746.65588"
       height="766.37885"
       x="-9.7334089"
       y="-3.5219595" />
  </g>
  <g
     inkscape:label="Layer 1"
     inkscape:groupmode="layer"
     id="layer1"
     transform="translate(-5.043923,0.591215)">
    <path
       sodipodi:type="arc"
       style="opacity:1;fill:white;fill-opacity:1;fill-rule:evenodd;stroke:#120000;stroke-width:2.29999995;stroke-linecap:butt;stroke-linejoin:miter;stroke-miterlimit:4;stroke-dasharray:none;stroke-dashoffset:0;stroke-opacity:1"
       id="path1932"
       sodipodi:cx="142.4315"
       sodipodi:cy="126.0523"
       sodipodi:rx="28.284271"
       sodipodi:ry="28.284271"
       d="M 170.71577 126.0523 A 28.284271 28.284271 0 1 1  114.14723,126.0523 A 28.284271 28.284271 0 1 1  170.71577 126.0523 z"
       transform="matrix(-1,0,0,-1,235.1219,379.4443)" />
    <path
       sodipodi:type="arc"
       style="opacity:1;fill:white;fill-opacity:1;fill-rule:evenodd;stroke:#120000;stroke-width:2.29999995;stroke-linecap:butt;stroke-linejoin:miter;stroke-miterlimit:4;stroke-dasharray:none;stroke-dashoffset:0;stroke-opacity:1"
       id="path1934"
       sodipodi:cx="142.4315"
       sodipodi:cy="126.0523"
       sodipodi:rx="28.284271"
       sodipodi:ry="28.284271"
       d="M 170.71577 126.0523 A 28.284271 28.284271 0 1 1  114.14723,126.0523 A 28.284271 28.284271 0 1 1  170.71577 126.0523 z"
       transform="matrix(-1,0,0,-1,372.5026,379.4443)" />
    <path
       sodipodi:type="arc"
       style="opacity:1;fill:white;fill-opacity:1;fill-rule:evenodd;stroke:#120000;stroke-width:2.29999995;stroke-linecap:butt;stroke-linejoin:miter;stroke-miterlimit:4;stroke-dasharray:none;stroke-dashoffset:0;stroke-opacity:1"
       id="path1936"
       sodipodi:cx="142.4315"
       sodipodi:cy="126.0523"
       sodipodi:rx="28.284271"
       sodipodi:ry="28.284271"
       d="M 170.71577 126.0523 A 28.284271 28.284271 0 1 1  114.14723,126.0523 A 28.284271 28.284271 0 1 1  170.71577 126.0523 z"
       transform="matrix(-1,0,0,-1,509.8833,379.4443)" />
    <path
       sodipodi:type="arc"
       style="opacity:1;fill:white;fill-opacity:1;fill-rule:evenodd;stroke:#120000;stroke-width:2.29999995;stroke-linecap:butt;stroke-linejoin:miter;stroke-miterlimit:4;stroke-dasharray:none;stroke-dashoffset:0;stroke-opacity:1"
       id="path1938"
       sodipodi:cx="142.4315"
       sodipodi:cy="126.0523"
       sodipodi:rx="28.284271"
       sodipodi:ry="28.284271"
       d="M 170.71577 126.0523 A 28.284271 28.284271 0 1 1  114.14723,126.0523 A 28.284271 28.284271 0 1 1  170.71577 126.0523 z"
       transform="matrix(-1,0,0,-1,647.2641,379.4443)" />
    <path
       sodipodi:type="arc"
       style="opacity:1;fill:white;fill-opacity:1;fill-rule:evenodd;stroke:#120000;stroke-width:2.29999995;stroke-linecap:butt;stroke-linejoin:miter;stroke-miterlimit:4;stroke-dasharray:none;stroke-dashoffset:0;stroke-opacity:1"
       id="path1940"
       sodipodi:cx="142.4315"
       sodipodi:cy="126.0523"
       sodipodi:rx="28.284271"
       sodipodi:ry="28.284271"
       d="M 170.71577 126.0523 A 28.284271 28.284271 0 1 1  114.14723,126.0523 A 28.284271 28.284271 0 1 1  170.71577 126.0523 z"
       transform="matrix(-1,0,0,-1,784.6448,379.4443)" />
    <path
       style="opacity:0.2;fill:none;fill-rule:evenodd;stroke:#b64035;stroke-width:8.10000038;stroke-linecap:butt;stroke-linejoin:miter;marker-start:none;stroke-miterlimit:4;stroke-dasharray:none;stroke-opacity:1;stroke-dashoffset:0"
       d="M 92.97464,225.36703 C 158.63456,139.50406 220.25387,227.38733 220.25387,227.38733"
       id="path1962" />
    <path
       style="opacity:0.6;fill:none;fill-rule:evenodd;stroke:#b64035;stroke-width:8.10000038;stroke-linecap:butt;stroke-linejoin:miter;marker-start:none;stroke-miterlimit:4;stroke-dasharray:none;stroke-opacity:1"
       d="M 110.14724,275.89496 C 226.31478,410.24525 365.71583,281.95588 365.71583,281.95588"
       id="path1964" />
    <path
       style="opacity:0.2;fill:none;fill-rule:evenodd;stroke:#b64035;stroke-width:8.10000038;stroke-linecap:square;stroke-linejoin:miter;marker-start:none;stroke-miterlimit:4;stroke-dasharray:none;stroke-opacity:1"
       d="M 240.45692,280.94572 C 496.02551,521.36203 636.43671,280.94572 636.43671,280.94572"
       id="path4842" />
    <path
       style="opacity:0.4;fill:none;fill-rule:evenodd;stroke:#b64035;stroke-width:8.10000038;stroke-linecap:square;stroke-linejoin:miter;marker-start:none;stroke-miterlimit:4;stroke-dasharray:none;stroke-opacity:1"
       d="M 382.88843,223.36702 C 516.22856,96.08781 636.43672,224.37718 636.43672,224.37718"
       id="path4844"
       sodipodi:nodetypes="cc" />
    <path
       style="opacity:0.6;fill:none;fill-rule:evenodd;stroke:#b64035;stroke-width:8.10000038;stroke-linecap:butt;stroke-linejoin:miter;marker-start:none;stroke-miterlimit:4;stroke-dasharray:none;stroke-opacity:1"
       d="M 500.95444,235.56833 C 242.35539,-57.37591 109.01525,230.51756 109.01525,230.51756"
       id="path4852" />
    <path
       style="opacity:0.4;fill:none;fill-rule:evenodd;stroke:#b64035;stroke-width:8.10000038;stroke-linecap:butt;stroke-linejoin:miter;marker-start:none;stroke-miterlimit:4;stroke-dasharray:none;stroke-opacity:1"
       d="M 513.1981,279.93557 C 578.85802,331.45335 626.33519,277.91526 626.33519,277.91526"
       id="path4858" />
    <path
       style="fill:none;fill-rule:evenodd;stroke:#b64035;stroke-width:8.10000038;stroke-linecap:butt;stroke-linejoin:miter;marker-start:none;marker-mid:none;stroke-miterlimit:4;stroke-dasharray:none;stroke-opacity:1"
       d="M 395.01026,244.58023 L 398.04071,242.55993 C 398.04071,242.55993 442.48743,204.17413 482.89353,234.47871"
       id="path7519" />
    <path
       style="opacity:0.4;fill:none;fill-rule:evenodd;stroke:#b64035;stroke-width:8.10000038;stroke-linecap:butt;stroke-linejoin:miter;marker-start:none;stroke-miterlimit:4;stroke-dasharray:none;stroke-opacity:1"
       d="M 236.41631,226.37718 C 307.12698,141.52437 358.64476,226.37718 358.64476,226.37718"
       id="path8408" />
    <path
       style="opacity:0.8;fill:none;fill-rule:evenodd;stroke:#b64035;stroke-width:8.10000038;stroke-linecap:butt;stroke-linejoin:miter;marker-start:none;stroke-miterlimit:4;stroke-dasharray:none;stroke-opacity:1"
       d="M 651.58854,223.87214 C 393.99981,-104.42744 226.31462,222.86198 226.31462,222.86198 L 227.32477,222.86198"
       id="path9295" />
    <path
       style="opacity:0.4;fill:none;fill-rule:evenodd;stroke:#b64035;stroke-width:8.10000038;stroke-linecap:butt;stroke-linejoin:miter;marker-start:none;stroke-miterlimit:4;stroke-dasharray:none;stroke-opacity:1"
       d="M 201.62696,242.36535 L 198.59651,240.34505 C 198.59651,240.34505 154.14979,201.95925 113.74369,232.26383"
       id="path11099" />
    <rect
       style="opacity:1;fill:#b64035;fill-opacity:1;fill-rule:evenodd;stroke:#b64035;stroke-width:8.10000038;stroke-linecap:square;stroke-linejoin:miter;stroke-miterlimit:4;stroke-dasharray:none;stroke-dashoffset:14.99999404;stroke-opacity:1"
       id="rect22128"
       width="61.619297"
       height="20.203087"
       x="234.02823"
       y="39.722408"
       rx="0"
       ry="0" />
    <text
       xml:space="preserve"
       style="font-size:32px;font-style:normal;font-weight:normal;text-align:start;line-height:300%;writing-mode:lr-tb;text-anchor:start;fill:black;fill-opacity:1;stroke:none;stroke-width:1px;stroke-linecap:butt;stroke-linejoin:miter;stroke-opacity:1;font-family:Bitstream Vera Sans"
       x="192.61203"
       y="56.895016"
       id="text22130"
       sodipodi:linespacing="300%"><tspan
         sodipodi:role="line"
         id="tspan22132"
         x="192.61203"
         y="56.895016"
         style="font-size:22px">1.0</tspan></text>
    <rect
       style="opacity:1;fill:white;fill-opacity:1;fill-rule:evenodd;stroke:#0060ff;stroke-width:7.0999999;stroke-linecap:square;stroke-linejoin:miter;stroke-miterlimit:4;stroke-dasharray:none;stroke-dashoffset:14.99999404;stroke-opacity:1"
       id="rect22134"
       width="26.26391"
       height="27.274137"
       x="115.93387"
       y="557.58545" />
    <path
       sodipodi:type="star"
       style="opacity:1;fill:white;fill-opacity:1;fill-rule:evenodd;stroke:#0067ff;stroke-width:7.0999999;stroke-linecap:square;stroke-linejoin:miter;stroke-miterlimit:4;stroke-dasharray:none;stroke-dashoffset:14.99999404;stroke-opacity:1"
       id="path24799"
       sodipodi:sides="5"
       sodipodi:cx="379.81735"
       sodipodi:cy="452.33157"
       sodipodi:r1="18.789923"
       sodipodi:r2="9.3949623"
       sodipodi:arg1="0.93804749"
       sodipodi:arg2="1.566366"
       inkscape:flatsided="false"
       inkscape:rounded="0"
       inkscape:randomized="0"
       d="M 390.92903,467.48386 L 379.85897,461.72644 L 368.84037,467.58172 L 370.89516,455.27433 L 361.92153,446.6044 L 374.26151,444.75543 L 379.73411,433.54184 L 385.30584,444.7065 L 397.66173,446.44605 L 388.76527,455.19516 L 390.92903,467.48386 z "
       transform="translate(-100.0809,116.3655)" />
    <path
       sodipodi:type="spiral"
       style="fill:white;fill-opacity:1;fill-rule:evenodd;stroke:#2169ea;stroke-width:4.84275246;stroke-linecap:butt;stroke-linejoin:miter;stroke-miterlimit:4;stroke-dasharray:none;stroke-opacity:1"
       id="path24805"
       sodipodi:cx="409.11179"
       sodipodi:cy="474.55493"
       sodipodi:expansion="1"
       sodipodi:revolution="3"
       sodipodi:radius="30.033995"
       sodipodi:argument="-17.621784"
       sodipodi:t0="0"
       d="M 409.11179,474.55493 C 409.61826,475.97306 407.45005,475.9373 406.75476,475.39673 C 404.87057,473.93179 405.80963,471.07438 407.4282,469.84089 C 410.32342,467.63446 414.40943,469.15079 416.18285,472.02955 C 418.78542,476.25423 416.62764,481.71198 412.47897,483.98302 C 406.94944,487.00996 400.07949,484.18768 397.32668,478.76391 C 393.86253,471.93865 397.35926,463.63965 404.06101,460.4128 C 412.17774,456.50466 421.91447,460.68091 425.61094,468.66236 C 429.9671,478.06824 425.10839,489.24777 415.84615,493.41111 C 405.15252,498.21785 392.52696,492.67484 387.89859,482.13109 C 382.63953,470.15062 388.86808,456.07683 400.69383,450.98471 C 413.96054,445.27212 429.4841,452.18706 435.03903,465.29518 C 441.20605,479.84768 433.6041,496.82217 419.21333,502.8392"
       transform="matrix(0.802633,0,0,0.849999,99.9871,166.538)" />
    <path
       style="font-size:31.63815308px;font-style:normal;font-weight:normal;text-align:start;line-height:300%;writing-mode:lr-tb;text-anchor:start;fill:#0067ff;fill-opacity:1;stroke:none;stroke-width:1px;stroke-linecap:butt;stroke-linejoin:miter;stroke-opacity:1;font-family:Bitstream Vera Sans"
       d="M 612.7624,568.18635 C 612.08627,567.88689 611.3287,567.5874 610.48968,567.28792 C 609.79726,567.04054 608.71792,566.81267 607.25165,566.60433 C 606.58368,566.5132 605.59394,566.50669 604.28244,566.5848 L 604.28244,562.99106 C 604.86895,562.89993 605.46768,562.84786 606.07863,562.83481 C 607.39828,562.83483 608.75865,563.0627 610.15976,563.51841 C 612.26141,564.1955 614.2083,565.17205 616.00042,566.44808 L 616.00042,569.45587 C 615.38132,569.76838 614.71335,570.26318 613.99651,570.94025 C 612.64427,572.21629 611.66675,573.284 611.06397,574.14336 C 609.88279,575.82305 608.98674,576.83866 608.3758,577.19023 C 606.57553,578.23189 605.01151,578.75271 603.68371,578.75271 L 602.11969,578.75271 L 602.11969,575.15898 L 603.34158,575.15898 C 605.19071,575.15899 606.6407,574.69024 607.69153,573.75273 C 608.53871,572.99753 609.43476,571.92984 610.3797,570.54963 C 611.14542,569.42984 611.93964,568.64209 612.7624,568.18635 M 592.32009,578.75271 L 588.28784,578.75271 L 588.28784,575.15898 L 592.07571,575.15898 C 593.28131,575.15899 594.06739,574.4819 594.43397,573.12774 C 594.5643,572.65899 594.62947,572.19025 594.62947,571.7215 C 594.62947,570.82307 594.40953,569.94417 593.96965,569.08479 L 590.18178,561.66295 C 589.77447,560.8687 589.57082,559.94422 589.57082,558.88951 C 589.57082,558.43381 589.61155,557.99111 589.69301,557.5614 C 589.94554,556.02497 590.49539,554.9768 591.34258,554.41688 L 600.44569,548.36222 L 600.44569,551.99502 L 593.17541,556.87781 C 592.59705,557.26845 592.22233,557.72418 592.05127,558.24499 C 592.00239,558.38823 591.97796,558.62261 591.97796,558.94811 C 591.97796,559.3648 592.10422,559.81401 592.35675,560.29576 L 599.4804,574.06524 C 599.6596,574.40378 599.90397,574.6642 600.21354,574.84648 C 600.5638,575.05481 600.99961,575.15899 601.52097,575.15898 L 602.59623,575.15898 L 602.59623,578.75271 L 600.98333,578.75271 C 600.45383,578.75271 599.95285,578.59647 599.4804,578.28396 C 598.64135,577.72407 598.08743,577.1772 597.81862,576.64336 L 596.63338,574.29961 C 596.46231,574.89857 596.30753,575.37383 596.16906,575.72538 C 595.39519,577.74361 594.1122,578.75271 592.32009,578.75271 M 584.60993,577.07304 C 583.98269,578.19282 583.04998,578.75271 581.81179,578.75271 L 580.71208,578.75271 L 580.71208,575.15898 L 581.13974,575.15898 C 581.9462,575.15899 582.52863,574.87253 582.88706,574.29961 C 583.2862,573.6616 583.48579,572.65248 583.48579,571.27228 L 583.48579,567.03401 L 585.73407,567.03401 L 585.73407,571.27228 C 585.73407,572.65248 585.93365,573.6616 586.3328,574.29961 C 586.69122,574.87253 587.27366,575.15899 588.08012,575.15898 L 588.75215,575.15898 L 588.75215,578.75271 L 587.40807,578.75271 C 586.18617,578.75271 585.25346,578.19282 584.60993,577.07304 M 585.22088,581.68239 L 587.05372,581.68239 L 587.05372,584.61207 L 585.22088,584.61207 L 585.22088,581.68239 M 582.16614,581.68239 L 583.99898,581.68239 L 583.99898,584.61207 L 582.16614,584.61207 L 582.16614,581.68239 M 571.74337,575.47149 C 572.73717,576.01835 573.54362,576.2918 574.16272,576.2918 C 574.52113,576.2918 574.78588,576.14856 574.95695,575.8621 C 575.38868,575.11992 575.60455,574.37122 575.60456,573.61602 C 575.60455,573.30353 575.58011,573.01707 575.53124,572.75665 C 575.36017,571.61082 575.03433,570.92723 574.55373,570.70588 C 574.22788,570.54964 573.8776,570.47151 573.5029,570.47151 C 573.02228,570.47151 572.672,570.64729 572.45207,570.99884 C 571.89814,571.88426 571.62117,572.76967 571.62118,573.65508 C 571.62117,574.17592 571.6619,574.78138 571.74337,575.47149 M 577.09527,577.73709 C 576.97307,577.91939 576.85903,578.06261 576.75314,578.16678 C 575.66972,579.20844 574.82254,579.72928 574.2116,579.72928 C 572.73717,579.72928 571.42567,579.22146 570.2771,578.20584 C 569.86979,577.84126 569.36067,578.16678 568.74973,579.18241 C 568.54607,579.52095 568.44425,580.20454 568.44425,581.23318 L 568.44425,588.36206 L 566.00046,588.36206 L 566.00046,581.23318 C 566.00046,578.98058 566.48922,577.19023 567.46674,575.8621 C 567.99622,575.14597 568.62753,574.7879 569.36067,574.78788 C 569.34438,574.24103 569.33623,573.70717 569.33624,573.18633 C 569.33623,571.25926 569.99605,569.43635 571.3157,567.7176 C 571.94294,566.8973 572.63127,566.48716 573.38071,566.48714 C 573.96721,566.48716 574.6026,566.72153 575.28687,567.19027 C 576.67167,568.11475 577.52699,569.74235 577.85284,572.07306 C 577.97502,572.94546 578.19904,573.66811 578.52489,574.24101 C 578.83442,574.81394 579.41686,575.10039 580.2722,575.10039 L 581.18863,575.10039 L 581.18863,578.69413 L 579.60015,578.69413 C 578.1746,578.69413 577.33964,578.37512 577.09527,577.73709"
       id="text26595" />
    <path
       style="opacity:0.3;fill:none;fill-rule:evenodd;stroke:black;stroke-width:6;stroke-linecap:butt;stroke-linejoin:miter;marker-start:none;stroke-miterlimit:4;stroke-dasharray:none;stroke-opacity:1"
       d="M 270.07622,552.67676 C 270.07622,552.67676 261.995,503.17928 243.81226,462.77318 C 225.62951,422.36708 158.95944,456.71227 89.25892,281.95588"
       id="path27990" />
    <path
       style="opacity:0.7;fill:none;fill-rule:evenodd;stroke:black;stroke-width:6;stroke-linecap:butt;stroke-linejoin:miter;marker-start:none;stroke-miterlimit:4;stroke-dasharray:none;stroke-opacity:1"
       d="M 112.47212,558.73767 L 112.47212,558.73767 C 112.47212,558.73767 112.47212,558.73767 103.38075,554.69706 C 94.28937,550.65645 57.923882,548.63615 71.05586,270.8442"
       id="path27998" />
    <path
       style="opacity:0.5;fill:none;fill-rule:evenodd;stroke:black;stroke-width:6;stroke-linecap:butt;stroke-linejoin:miter;marker-start:none;stroke-miterlimit:4;stroke-dasharray:none;stroke-opacity:1"
       d="M 128.65486,547.62599 C 128.65486,547.62599 118.55334,410.24525 204.41631,267.81374"
       id="path28008" />
    <path
       style="opacity:0.5;fill:none;fill-rule:evenodd;stroke:black;stroke-width:6;stroke-linecap:butt;stroke-linejoin:miter;marker-start:none;stroke-miterlimit:4;stroke-dasharray:none;stroke-opacity:1"
       d="M 427.68032,541.54477 C 427.68032,541.54477 417.5788,374.8696 254.94424,266.78328"
       id="path28010" />
    <path
       style="opacity:0.7;fill:none;fill-rule:evenodd;stroke:black;stroke-width:6;stroke-linecap:butt;stroke-linejoin:miter;marker-start:none;stroke-miterlimit:4;stroke-dasharray:none;stroke-opacity:1"
       d="M 581.20321,546.61584 C 581.20321,546.61584 585.24382,443.58028 392.30468,267.81374"
       id="path28012" />
    <path
       style="opacity:0.15;fill:none;fill-rule:evenodd;stroke:black;stroke-width:6;stroke-linecap:butt;stroke-linejoin:miter;marker-start:none;stroke-miterlimit:4;stroke-dasharray:none;stroke-opacity:1"
       d="M 288.25897,550.65645 C 288.25897,550.65645 380.18285,492.0676 363.01026,281.95588"
       id="path28014" />
    <path
       style="opacity:0.3;fill:none;fill-rule:evenodd;stroke:black;stroke-width:6;stroke-linecap:butt;stroke-linejoin:miter;marker-start:none;stroke-miterlimit:4;stroke-dasharray:none;stroke-opacity:1"
       d="M 445.86307,549.6666 C 445.86307,549.6666 465.05597,469.86455 386.26407,272.88481"
       id="path28903" />
    <path
       style="fill:none;fill-rule:evenodd;stroke:black;stroke-width:6;stroke-linecap:butt;stroke-linejoin:miter;marker-start:none;stroke-miterlimit:4;stroke-dasharray:none;stroke-opacity:1"
       d="M 600.3961,540.55493 C 600.3961,540.55493 600.3961,540.55493 600.3961,526.41279 C 600.3961,512.27066 574.13214,446.61074 559.99,408.22494 C 545.84787,369.83915 500.391,403.17418 498.3707,280.94572"
       id="path29790" />
    <path
       style="opacity:0.3;fill:none;fill-rule:evenodd;stroke:black;stroke-width:6;stroke-linecap:butt;stroke-linejoin:miter;marker-start:none;stroke-miterlimit:4;stroke-dasharray:none;stroke-opacity:1"
       d="M 611.50778,548.63615 C 611.50778,548.63615 611.50778,548.63615 650.90373,280.94572"
       id="path29794" />
    <path
       style="opacity:0.7;fill:none;fill-rule:evenodd;stroke:black;stroke-width:6;stroke-linecap:square;stroke-linejoin:miter;marker-start:none;stroke-miterlimit:4;stroke-dasharray:none;stroke-opacity:1"
       d="M 279.16759,536.51432 C 279.16759,536.51432 279.16759,536.51432 295.33003,476.91532 C 311.49248,417.31632 608.47732,444.59043 636.7616,282.96603"
       id="path30687" />
    <rect
       style="opacity:1;fill:black;fill-opacity:1;fill-rule:evenodd;stroke:black;stroke-width:8.10000038;stroke-linecap:square;stroke-linejoin:miter;stroke-miterlimit:4;stroke-dasharray:none;stroke-dashoffset:14.99999404;stroke-opacity:1"
       id="rect41309"
       width="61.619297"
       height="20.203087"
       x="104.02824"
       y="39.483822"
       rx="0"
       ry="0" />
    <text
       xml:space="preserve"
       style="font-size:32px;font-style:normal;font-weight:normal;text-align:start;line-height:300%;writing-mode:lr-tb;text-anchor:start;fill:black;fill-opacity:1;stroke:none;stroke-width:1px;stroke-linecap:butt;stroke-linejoin:miter;stroke-opacity:1;font-family:Bitstream Vera Sans"
       x="62.61203"
       y="56.656429"
       id="text41311"
       sodipodi:linespacing="300%"><tspan
         sodipodi:role="line"
         id="tspan41313"
         x="62.61203"
         y="56.656429"
         style="font-size:22px">1.0</tspan></text>
    <text
       xml:space="preserve"
       style="font-size:32px;font-style:normal;font-weight:normal;text-align:start;line-height:300%;writing-mode:lr-tb;text-anchor:start;fill:black;fill-opacity:1;stroke:none;stroke-width:1px;stroke-linecap:butt;stroke-linejoin:miter;stroke-opacity:1;font-family:Bitstream Vera Sans"
       x="83.197998"
       y="260.74268"
       id="text42200"
       sodipodi:linespacing="300%"><tspan
         sodipodi:role="line"
         id="tspan42202"
         x="83.197998"
         y="260.74268"
         style="font-family:URW Chancery L">1</tspan></text>
    <text
       xml:space="preserve"
       style="font-size:32px;font-style:normal;font-weight:normal;text-align:start;line-height:300%;writing-mode:lr-tb;text-anchor:start;fill:black;fill-opacity:1;stroke:none;stroke-width:1px;stroke-linecap:butt;stroke-linejoin:miter;stroke-opacity:1;font-family:Bitstream Vera Sans"
       x="219.12613"
       y="261.87531"
       id="text42204"
       sodipodi:linespacing="300%"><tspan
         sodipodi:role="line"
         id="tspan42206"
         x="219.12613"
         y="261.87531"
         style="font-family:URW Chancery L">2</tspan></text>
    <text
       xml:space="preserve"
       style="font-size:32px;font-style:normal;font-weight:normal;text-align:start;line-height:300%;writing-mode:lr-tb;text-anchor:start;fill:black;fill-opacity:1;stroke:none;stroke-width:1px;stroke-linecap:butt;stroke-linejoin:miter;stroke-opacity:1;font-family:Bitstream Vera Sans"
       x="357.4967"
       y="261.85501"
       id="text42208"
       sodipodi:linespacing="300%"><tspan
         sodipodi:role="line"
         id="tspan42210"
         x="357.4967"
         y="261.85501"
         style="font-family:URW Chancery L">3</tspan></text>
    <text
       xml:space="preserve"
       style="font-size:32px;font-style:normal;font-weight:normal;text-align:start;line-height:300%;writing-mode:lr-tb;text-anchor:start;fill:black;fill-opacity:1;stroke:none;stroke-width:1px;stroke-linecap:butt;stroke-linejoin:miter;stroke-opacity:1;font-family:Bitstream Vera Sans"
       x="494.8775"
       y="265.89563"
       id="text42212"
       sodipodi:linespacing="300%"><tspan
         sodipodi:role="line"
         id="tspan42214"
         x="494.8775"
         y="265.89563"
         style="font-family:URW Chancery L">4</tspan></text>
    <text
       xml:space="preserve"
       style="font-size:32px;font-style:normal;font-weight:normal;text-align:start;line-height:300%;writing-mode:lr-tb;text-anchor:start;fill:black;fill-opacity:1;stroke:none;stroke-width:1px;stroke-linecap:butt;stroke-linejoin:miter;stroke-opacity:1;font-family:Bitstream Vera Sans"
       x="633.30896"
       y="263.87531"
       id="text42216"
       sodipodi:linespacing="300%"><tspan
         sodipodi:role="line"
         id="tspan42218"
         x="633.30896"
         y="263.87531"
         style="font-family:URW Chancery L">5</tspan></text>
    <path
       style="font-size:31.63815308px;font-style:normal;font-weight:normal;text-align:start;line-height:300%;writing-mode:lr-tb;text-anchor:start;fill:#0067ff;fill-opacity:1;stroke:none;stroke-width:1px;stroke-linecap:butt;stroke-linejoin:miter;stroke-opacity:1;font-family:Bitstream Vera Sans"
       d="M 119.72668,680.83519 C 119.05055,680.53573 118.29298,680.23624 117.45396,679.93676 C 116.76154,679.68938 115.6822,679.46151 114.21593,679.25317 C 113.54796,679.16204 112.55822,679.15553 111.24672,679.23364 L 111.24672,675.6399 C 111.83323,675.54877 112.43196,675.4967 113.04291,675.48365 C 114.36256,675.48367 115.72293,675.71154 117.12404,676.16725 C 119.22569,676.84434 121.17258,677.82089 122.9647,679.09692 L 122.9647,682.10471 C 122.3456,682.41722 121.67763,682.91202 120.96079,683.58909 C 119.60855,684.86513 118.63103,685.93284 118.02825,686.7922 C 116.84707,688.47189 115.95102,689.4875 115.34008,689.83907 C 113.53981,690.88073 111.97579,691.40155 110.64799,691.40155 L 109.08397,691.40155 L 109.08397,687.80782 L 110.30586,687.80782 C 112.15499,687.80783 113.60498,687.33908 114.65581,686.40157 C 115.50299,685.64637 116.39904,684.57868 117.34398,683.19847 C 118.1097,682.07868 118.90392,681.29093 119.72668,680.83519 M 99.284367,691.40155 L 95.252117,691.40155 L 95.252117,687.80782 L 99.039987,687.80782 C 100.24559,687.80783 101.03167,687.13074 101.39825,685.77658 C 101.52858,685.30783 101.59375,684.83909 101.59375,684.37034 C 101.59375,683.47191 101.37381,682.59301 100.93393,681.73363 L 97.146057,674.31179 C 96.738747,673.51754 96.535097,672.59306 96.535097,671.53835 C 96.535097,671.08265 96.575827,670.63995 96.657287,670.21024 C 96.909817,668.67381 97.459667,667.62564 98.306857,667.06572 L 107.40997,661.01106 L 107.40997,664.64386 L 100.13969,669.52665 C 99.561327,669.91729 99.186607,670.37302 99.015547,670.89383 C 98.966667,671.03707 98.942237,671.27145 98.942237,671.59695 C 98.942237,672.01364 99.068497,672.46285 99.321027,672.9446 L 106.44468,686.71408 C 106.62388,687.05262 106.86825,687.31304 107.17782,687.49532 C 107.52808,687.70365 107.96389,687.80783 108.48525,687.80782 L 109.56051,687.80782 L 109.56051,691.40155 L 107.94761,691.40155 C 107.41811,691.40155 106.91713,691.24531 106.44468,690.9328 C 105.60563,690.37291 105.05171,689.82604 104.7829,689.2922 L 103.59766,686.94845 C 103.42659,687.54741 103.27181,688.02267 103.13334,688.37422 C 102.35947,690.39245 101.07648,691.40155 99.284367,691.40155 M 91.574207,689.72188 C 90.946967,690.84166 90.014257,691.40155 88.776067,691.40155 L 87.676357,691.40155 L 87.676357,687.80782 L 88.104017,687.80782 C 88.910477,687.80783 89.492907,687.52137 89.851337,686.94845 C 90.250477,686.31044 90.450067,685.30132 90.450067,683.92112 L 90.450067,679.68285 L 92.698347,679.68285 L 92.698347,683.92112 C 92.698347,685.30132 92.897927,686.31044 93.297077,686.94845 C 93.655497,687.52137 94.237937,687.80783 95.044397,687.80782 L 95.716427,687.80782 L 95.716427,691.40155 L 94.372347,691.40155 C 93.150447,691.40155 92.217737,690.84166 91.574207,689.72188 M 92.185157,694.33123 L 94.017997,694.33123 L 94.017997,697.26091 L 92.185157,697.26091 L 92.185157,694.33123 M 89.130417,694.33123 L 90.963257,694.33123 L 90.963257,697.26091 L 89.130417,697.26091 L 89.130417,694.33123 M 78.707647,688.12033 C 79.701447,688.66719 80.507897,688.94064 81.126997,688.94064 C 81.485407,688.94064 81.750157,688.7974 81.921227,688.51094 C 82.352957,687.76876 82.568827,687.02006 82.568837,686.26486 C 82.568827,685.95237 82.544387,685.66591 82.495517,685.40549 C 82.324447,684.25966 81.998607,683.57607 81.518007,683.35472 C 81.192157,683.19848 80.841877,683.12035 80.467177,683.12035 C 79.986557,683.12035 79.636277,683.29613 79.416347,683.64768 C 78.862417,684.5331 78.585447,685.41851 78.585457,686.30392 C 78.585447,686.82476 78.626177,687.43022 78.707647,688.12033 M 84.059547,690.38593 C 83.937347,690.56823 83.823307,690.71145 83.717417,690.81562 C 82.633997,691.85728 81.786817,692.37812 81.175877,692.37812 C 79.701447,692.37812 78.389947,691.8703 77.241377,690.85468 C 76.834067,690.4901 76.324947,690.81562 75.714007,691.83125 C 75.510347,692.16979 75.408527,692.85338 75.408527,693.88202 L 75.408527,701.0109 L 72.964737,701.0109 L 72.964737,693.88202 C 72.964737,691.62942 73.453497,689.83907 74.431017,688.51094 C 74.960497,687.79481 75.591807,687.43674 76.324947,687.43672 C 76.308657,686.88987 76.300507,686.35601 76.300517,685.83517 C 76.300507,683.9081 76.960327,682.08519 78.279977,680.36644 C 78.907217,679.54614 79.595547,679.136 80.344987,679.13598 C 80.931487,679.136 81.566877,679.37037 82.251147,679.83911 C 83.635947,680.76359 84.491267,682.39119 84.817117,684.7219 C 84.939297,685.5943 85.163317,686.31695 85.489167,686.88985 C 85.798697,687.46278 86.381137,687.74923 87.236477,687.74923 L 88.152907,687.74923 L 88.152907,691.34297 L 86.564427,691.34297 C 85.138877,691.34297 84.303917,691.02396 84.059547,690.38593"
       id="path42224" />
    <path
       sodipodi:type="star"
       style="opacity:1;fill:white;fill-opacity:1;fill-rule:evenodd;stroke:#0067ff;stroke-width:7.0999999;stroke-linecap:square;stroke-linejoin:miter;stroke-miterlimit:4;stroke-dasharray:none;stroke-dashoffset:14.99999404;stroke-opacity:1"
       id="path42226"
       sodipodi:sides="5"
       sodipodi:cx="379.81735"
       sodipodi:cy="452.33157"
       sodipodi:r1="18.789923"
       sodipodi:r2="9.3949623"
       sodipodi:arg1="0.93804749"
       sodipodi:arg2="1.566366"
       inkscape:flatsided="false"
       inkscape:rounded="0"
       inkscape:randomized="0"
       d="M 390.92903,467.48386 L 379.85897,461.72644 L 368.84037,467.58172 L 370.89516,455.27433 L 361.92153,446.6044 L 374.26151,444.75543 L 379.73411,433.54184 L 385.30584,444.7065 L 397.66173,446.44605 L 388.76527,455.19516 L 390.92903,467.48386 z "
       transform="translate(-208.8939,229.8792)" />
    <rect
       style="opacity:1;fill:white;fill-opacity:1;fill-rule:evenodd;stroke:#0060ff;stroke-width:7.0999999;stroke-linecap:square;stroke-linejoin:miter;stroke-miterlimit:4;stroke-dasharray:none;stroke-dashoffset:14.99999404;stroke-opacity:1"
       id="rect42228"
       width="26.26391"
       height="27.274137"
       x="230.69881"
       y="670.18677" />
    <path
       sodipodi:type="star"
       style="opacity:1;fill:white;fill-opacity:1;fill-rule:evenodd;stroke:#0067ff;stroke-width:7.0999999;stroke-linecap:square;stroke-linejoin:miter;stroke-miterlimit:4;stroke-dasharray:none;stroke-dashoffset:14.99999404;stroke-opacity:1"
       id="path42230"
       sodipodi:sides="5"
       sodipodi:cx="379.81735"
       sodipodi:cy="452.33157"
       sodipodi:r1="18.789923"
       sodipodi:r2="9.3949623"
       sodipodi:arg1="0.93804749"
       sodipodi:arg2="1.566366"
       inkscape:flatsided="false"
       inkscape:rounded="0"
       inkscape:randomized="0"
       d="M 390.92903,467.48386 L 379.85897,461.72644 L 368.84037,467.58172 L 370.89516,455.27433 L 361.92153,446.6044 L 374.26151,444.75543 L 379.73411,433.54184 L 385.30584,444.7065 L 397.66173,446.44605 L 388.76527,455.19516 L 390.92903,467.48386 z "
       transform="translate(-63.02785,229.8792)" />
    <path
       sodipodi:type="star"
       style="opacity:1;fill:white;fill-opacity:1;fill-rule:evenodd;stroke:#0067ff;stroke-width:7.0999999;stroke-linecap:square;stroke-linejoin:miter;stroke-miterlimit:4;stroke-dasharray:none;stroke-dashoffset:14.99999404;stroke-opacity:1"
       id="path42232"
       sodipodi:sides="5"
       sodipodi:cx="379.81735"
       sodipodi:cy="452.33157"
       sodipodi:r1="18.789923"
       sodipodi:r2="9.3949623"
       sodipodi:arg1="0.93804749"
       sodipodi:arg2="1.566366"
       inkscape:flatsided="false"
       inkscape:rounded="0"
       inkscape:randomized="0"
       d="M 390.92903,467.48386 L 379.85897,461.72644 L 368.84037,467.58172 L 370.89516,455.27433 L 361.92153,446.6044 L 374.26151,444.75543 L 379.73411,433.54184 L 385.30584,444.7065 L 397.66173,446.44605 L 388.76527,455.19516 L 390.92903,467.48386 z "
       transform="translate(9.905127,229.8792)" />
    <path
       sodipodi:type="spiral"
       style="fill:white;fill-opacity:1;fill-rule:evenodd;stroke:#2169ea;stroke-width:4.84275246;stroke-linecap:butt;stroke-linejoin:miter;stroke-miterlimit:4;stroke-dasharray:none;stroke-opacity:1"
       id="path42234"
       sodipodi:cx="409.11179"
       sodipodi:cy="474.55493"
       sodipodi:expansion="1"
       sodipodi:revolution="3"
       sodipodi:radius="30.033995"
       sodipodi:argument="-17.621784"
       sodipodi:t0="0"
       d="M 409.11179,474.55493 C 409.61826,475.97306 407.45005,475.9373 406.75476,475.39673 C 404.87057,473.93179 405.80963,471.07438 407.4282,469.84089 C 410.32342,467.63446 414.40943,469.15079 416.18285,472.02955 C 418.78542,476.25423 416.62764,481.71198 412.47897,483.98302 C 406.94944,487.00996 400.07949,484.18768 397.32668,478.76391 C 393.86253,471.93865 397.35926,463.63965 404.06101,460.4128 C 412.17774,456.50466 421.91447,460.68091 425.61094,468.66236 C 429.9671,478.06824 425.10839,489.24777 415.84615,493.41111 C 405.15252,498.21785 392.52696,492.67484 387.89859,482.13109 C 382.63953,470.15062 388.86808,456.07683 400.69383,450.98471 C 413.96054,445.27212 429.4841,452.18706 435.03903,465.29518 C 441.20605,479.84768 433.6041,496.82217 419.21333,502.8392"
       transform="matrix(0.802633,0,0,0.849999,132.2613,277.5981)" />
    <path
       style="fill:none;fill-rule:evenodd;stroke:black;stroke-width:4;stroke-linecap:butt;stroke-linejoin:miter;stroke-miterlimit:4;stroke-dasharray:16, 16;stroke-dashoffset:0;stroke-opacity:1"
       d="M 54.942604,629.72677 L 655.08489,626.9092 L 655.08489,626.9092"
       id="path45814" />
    <path
       style="fill:#1a1a1a;fill-rule:evenodd;stroke:black;stroke-width:1.00000167px;stroke-linecap:butt;stroke-linejoin:miter;stroke-opacity:1"
       d="M 661.11628,241.14147 L 651.47651,204.56799 L 648.87825,220.13106 L 634.04193,214.68373 L 661.11628,241.14147 z "
       id="path3725" />
    <path
       style="fill:#1a1a1a;fill-rule:evenodd;stroke:black;stroke-width:1.00000167px;stroke-linecap:butt;stroke-linejoin:miter;stroke-opacity:1"
       d="M 367.46752,238.36987 L 401.06852,221.00562 L 385.31292,221.85477 L 387.4027,206.1888 L 367.46752,238.36987 z "
       id="path4612" />
    <path
       style="fill:#1a1a1a;fill-rule:evenodd;stroke:black;stroke-width:1.00000191px;stroke-linecap:butt;stroke-linejoin:miter;stroke-opacity:1"
       d="M 509.04325,243.17342 L 491.76854,209.52629 L 492.57573,225.2841 L 476.91538,223.15261 L 509.04325,243.17342 z "
       id="path4614" />
    <path
       style="fill:#1a1a1a;fill-rule:evenodd;stroke:black;stroke-width:1.00000215px;stroke-linecap:butt;stroke-linejoin:miter;stroke-opacity:1"
       d="M 499.63456,269.7015 L 522.5215,299.81353 L 518.97397,284.43902 L 534.76588,283.80202 L 499.63456,269.7015 z "
       id="path5501" />
    <path
       style="fill:#1a1a1a;fill-rule:evenodd;stroke:black;stroke-width:1.00000203px;stroke-linecap:butt;stroke-linejoin:miter;stroke-opacity:1"
       d="M 378.74176,254.07268 L 415.06418,243.52627 L 399.4413,241.31588 L 404.51796,226.34867 L 378.74176,254.07268 z "
       id="path6388" />
    <path
       style="fill:#1a1a1a;fill-rule:evenodd;stroke:black;stroke-width:1.00000167px;stroke-linecap:butt;stroke-linejoin:miter;stroke-opacity:1"
       d="M 226.79271,241.03229 L 257.35387,218.74861 L 241.91185,221.98974 L 241.58897,206.18829 L 226.79271,241.03229 z "
       id="path7275" />
    <path
       style="fill:#1a1a1a;fill-rule:evenodd;stroke:black;stroke-width:1.00000167px;stroke-linecap:butt;stroke-linejoin:miter;stroke-opacity:1"
       d="M 227.03324,269.9498 L 247.42726,301.80301 L 245.12619,286.19324 L 260.91828,286.82687 L 227.03324,269.9498 z "
       id="path8162" />
    <path
       style="fill:#1a1a1a;fill-rule:evenodd;stroke:black;stroke-width:1.00000167px;stroke-linecap:butt;stroke-linejoin:miter;stroke-opacity:1"
       d="M 214.31434,253.04006 L 193.03576,221.77082 L 195.77326,237.31001 L 179.9697,237.11915 L 214.31434,253.04006 z "
       id="path9049" />
    <path
       style="fill:#1a1a1a;fill-rule:evenodd;stroke:black;stroke-width:1.00000167px;stroke-linecap:butt;stroke-linejoin:miter;stroke-opacity:1"
       d="M 78.893004,236.14352 L 112.494,218.77927 L 96.738404,219.62842 L 98.828184,203.96245 L 78.893004,236.14352 z "
       id="path9936" />
    <path
       style="fill:#1a1a1a;fill-rule:evenodd;stroke:black;stroke-width:1.00000167px;stroke-linecap:butt;stroke-linejoin:miter;stroke-opacity:1"
       d="M 99.962568,263.61221 L 115.61394,298.04445 L 115.55871,282.26607 L 131.09968,285.14155 L 99.962568,263.61221 z "
       id="path10823" />
    <path
       style="fill:#1a1a1a;fill-rule:evenodd;stroke:black;stroke-width:1.00000191px;stroke-linecap:butt;stroke-linejoin:miter;stroke-opacity:1"
       d="M 609.50601,558.09984 L 619.00513,533.72507 L 611.22828,541.38398 L 605.17363,532.32696 L 609.50601,558.09984 z "
       id="path10825" />
    <path
       style="fill:#1a1a1a;fill-rule:evenodd;stroke:black;stroke-width:1.00000191px;stroke-linecap:butt;stroke-linejoin:miter;stroke-opacity:1"
       d="M 596.96771,555.85976 L 606.46683,531.48499 L 598.68998,539.1439 L 592.63533,530.08688 L 596.96771,555.85976 z "
       id="path11712" />
    <path
       style="fill:#1a1a1a;fill-rule:evenodd;stroke:black;stroke-width:1.00000191px;stroke-linecap:butt;stroke-linejoin:miter;stroke-opacity:1"
       d="M 445.41015,557.26853 L 454.90925,532.89376 L 447.13245,540.55267 L 441.07775,531.49565 L 445.41015,557.26853 z "
       id="path11714" />
    <path
       style="fill:#1a1a1a;fill-rule:evenodd;stroke:black;stroke-width:1.00000191px;stroke-linecap:butt;stroke-linejoin:miter;stroke-opacity:1"
       d="M 127.79998,555.73649 L 134.70948,530.50513 L 127.77238,538.93216 L 120.80758,530.5548 L 127.79998,555.73649 z "
       id="path11716" />
    <path
       style="fill:#1a1a1a;fill-rule:evenodd;stroke:black;stroke-width:1.00000191px;stroke-linecap:butt;stroke-linejoin:miter;stroke-opacity:1"
       d="M 276.43564,550.61198 L 289.02507,527.68015 L 280.31787,534.26223 L 275.49296,524.4945 L 276.43564,550.61198 z "
       id="path11718" />
    <path
       style="fill:#1a1a1a;fill-rule:evenodd;stroke:black;stroke-width:1.00000191px;stroke-linecap:butt;stroke-linejoin:miter;stroke-opacity:1"
       d="M 427.48553,547.28344 L 433.21283,521.75776 L 426.67553,530.49863 L 419.32828,522.45461 L 427.48553,547.28344 z "
       id="path11720" />
    <path
       style="fill:#1a1a1a;fill-rule:evenodd;stroke:black;stroke-width:1.00000191px;stroke-linecap:butt;stroke-linejoin:miter;stroke-opacity:1"
       d="M 271.2358,558.3132 L 273.83496,532.28232 L 268.40241,541.74945 L 260.13651,534.65274 L 271.2358,558.3132 z "
       id="path11722" />
    <path
       style="fill:#1a1a1a;fill-rule:evenodd;stroke:black;stroke-width:1.00000191px;stroke-linecap:butt;stroke-linejoin:miter;stroke-opacity:1"
       d="M 582.45185,559.9625 L 588.17915,534.43682 L 581.64185,543.17769 L 574.2946,535.13367 L 582.45185,559.9625 z "
       id="path11724" />
    <path
       style="fill:#1a1a1a;fill-rule:evenodd;stroke:black;stroke-width:1.00000191px;stroke-linecap:butt;stroke-linejoin:miter;stroke-opacity:1"
       d="M 283.83628,555.18226 L 307.30032,543.61503 L 296.39253,544.01417 L 298.0411,533.24521 L 283.83628,555.18226 z "
       id="path11726" />
    <path
       style="fill:#1a1a1a;fill-rule:evenodd;stroke:black;stroke-width:1.00000191px;stroke-linecap:butt;stroke-linejoin:miter;stroke-opacity:1"
       d="M 116.88307,561.95261 L 97.87642,543.97736 L 102.04481,554.06515 L 91.374889,556.26541 L 116.88307,561.95261 z "
       id="path11728" />
  </g>
</svg>
